<?xml version="1.0" ?><svg viewBox="0 0 64 64" xmlns="http://www.w3.org/2000/svg" fill="white"><g id="a"/><g id="b"/><g id="c"/><g id="d"/><g id="e"/><g id="f"/><g id="g"/><g id="h"/><g id="i"/><g id="j"/><g id="k"><path d="M50.51,11.11c-.55-.78-1.46-1.25-2.42-1.25H16.37c-.95,0-1.85,.46-2.42,1.22L4.43,23.94c-.64,.87-.56,2.06,.19,2.83l25.95,26.77c.74,.76,1.97,.85,2.85,0l25.95-26.77c.74-.77,.84-1.96,.22-2.83l-9.08-12.83Zm-10.44,15.24l-8.05,24-7.61-24h15.66Zm-15.21-2l7.37-11.62,7.4,11.62h-14.77Zm9.19-12.49h13.39l-6.07,11.5-7.32-11.5Zm-10.93,11.5l-6.1-11.5h13.39l-7.29,11.5Zm6.64,26.47L6.99,26.35h15.32l7.45,23.48Zm12.42-23.48h14.82l-22.67,23.4,7.85-23.4Zm.94-2l6.11-11.58,8.2,11.58h-14.31ZM15.22,12.73l6.17,11.62H6.62L15.22,12.73Z"/></g><g id="l"/><g id="m"/><g id="n"/><g id="o"/><g id="p"/><g id="q"/><g id="r"/><g id="s"/><g id="t"/><g id="u"/><g id="v"/><g id="w"/><g id="x"/><g id="y"/><g id="a`"/><g id="aa"/><g id="ab"/><g id="ac"/><g id="ad"/><g id="ae"/><g id="af"/><g id="ag"/><g id="ah"/><g id="ai"/><g id="aj"/><g id="ak"/><g id="al"/><g id="am"/><g id="an"/><g id="ao"/><g id="ap"/><g id="aq"/><g id="ar"/><g id="as"/><g id="at"/><g id="au"/><g id="av"/><g id="aw"/><g id="ax"/></svg>